<?xml version="1.0" encoding="UTF-8"?>
<svg xmlns="http://www.w3.org/2000/svg" version="1.1" width="200" height="200" viewBox="0 0 200 200"><rect x="0" y="0" width="200" height="200" fill="#ffffff"/><g transform="scale(4.444)"><g transform="translate(4,4)"><path fill-rule="evenodd" d="M8 0L8 1L9 1L9 2L10 2L10 3L11 3L11 1L13 1L13 0L11 0L11 1L9 1L9 0ZM15 0L15 1L16 1L16 2L15 2L15 3L16 3L16 4L14 4L14 5L15 5L15 6L14 6L14 7L13 7L13 5L12 5L12 4L13 4L13 2L12 2L12 4L11 4L11 5L10 5L10 4L9 4L9 5L10 5L10 8L9 8L9 6L8 6L8 8L9 8L9 9L7 9L7 8L6 8L6 9L5 9L5 8L3 8L3 10L2 10L2 8L0 8L0 11L1 11L1 12L2 12L2 11L3 11L3 12L4 12L4 13L3 13L3 15L0 15L0 16L1 16L1 17L2 17L2 18L1 18L1 19L2 19L2 21L0 21L0 22L1 22L1 23L0 23L0 29L1 29L1 27L2 27L2 29L3 29L3 26L4 26L4 27L7 27L7 26L5 26L5 25L8 25L8 27L9 27L9 28L11 28L11 29L8 29L8 30L12 30L12 31L11 31L11 33L10 33L10 32L8 32L8 34L9 34L9 35L8 35L8 37L10 37L10 34L11 34L11 37L14 37L14 31L16 31L16 28L17 28L17 26L18 26L18 28L19 28L19 27L20 27L20 28L21 28L21 29L20 29L20 30L19 30L19 31L20 31L20 32L19 32L19 34L18 34L18 35L17 35L17 36L16 36L16 37L18 37L18 35L19 35L19 36L20 36L20 37L22 37L22 36L23 36L23 37L24 37L24 36L25 36L25 35L26 35L26 36L27 36L27 35L28 35L28 34L29 34L29 33L30 33L30 34L31 34L31 35L33 35L33 36L32 36L32 37L33 37L33 36L36 36L36 37L37 37L37 30L36 30L36 29L35 29L35 28L36 28L36 27L37 27L37 26L36 26L36 25L37 25L37 22L36 22L36 21L37 21L37 18L36 18L36 17L37 17L37 14L36 14L36 13L37 13L37 10L36 10L36 9L37 9L37 8L36 8L36 9L31 9L31 8L30 8L30 9L29 9L29 10L30 10L30 13L29 13L29 11L28 11L28 8L26 8L26 7L27 7L27 4L26 4L26 3L27 3L27 2L26 2L26 0L25 0L25 1L24 1L24 0L23 0L23 1L24 1L24 2L23 2L23 3L24 3L24 4L21 4L21 5L20 5L20 4L18 4L18 3L17 3L17 1L18 1L18 0ZM21 0L21 3L22 3L22 0ZM19 1L19 2L20 2L20 1ZM28 2L28 3L29 3L29 2ZM24 4L24 5L25 5L25 7L26 7L26 4ZM28 4L28 7L29 7L29 4ZM11 5L11 7L12 7L12 9L9 9L9 10L10 10L10 11L9 11L9 12L8 12L8 11L6 11L6 10L7 10L7 9L6 9L6 10L5 10L5 11L4 11L4 12L8 12L8 13L6 13L6 14L5 14L5 13L4 13L4 15L3 15L3 16L4 16L4 18L3 18L3 19L4 19L4 21L3 21L3 22L2 22L2 23L3 23L3 22L4 22L4 21L5 21L5 22L7 22L7 21L8 21L8 20L9 20L9 19L8 19L8 18L7 18L7 17L9 17L9 16L10 16L10 18L11 18L11 17L14 17L14 16L15 16L15 18L12 18L12 19L11 19L11 20L10 20L10 21L11 21L11 25L10 25L10 24L9 24L9 25L10 25L10 26L11 26L11 28L12 28L12 27L14 27L14 26L17 26L17 25L18 25L18 26L19 26L19 25L20 25L20 27L21 27L21 28L23 28L23 27L25 27L25 28L26 28L26 32L25 32L25 29L23 29L23 30L24 30L24 31L21 31L21 30L20 30L20 31L21 31L21 32L22 32L22 33L21 33L21 34L19 34L19 35L20 35L20 36L22 36L22 35L23 35L23 36L24 36L24 35L25 35L25 33L26 33L26 35L27 35L27 31L28 31L28 29L27 29L27 28L32 28L32 27L35 27L35 26L32 26L32 27L30 27L30 26L31 26L31 25L30 25L30 23L27 23L27 24L26 24L26 23L25 23L25 24L24 24L24 23L23 23L23 21L24 21L24 22L26 22L26 20L25 20L25 19L27 19L27 21L28 21L28 22L31 22L31 21L28 21L28 20L30 20L30 19L31 19L31 20L32 20L32 21L33 21L33 20L34 20L34 22L32 22L32 23L33 23L33 24L32 24L32 25L33 25L33 24L34 24L34 25L36 25L36 24L34 24L34 22L35 22L35 23L36 23L36 22L35 22L35 21L36 21L36 18L35 18L35 17L34 17L34 15L33 15L33 14L34 14L34 13L36 13L36 10L34 10L34 11L35 11L35 12L34 12L34 13L33 13L33 12L32 12L32 10L31 10L31 9L30 9L30 10L31 10L31 13L30 13L30 14L29 14L29 15L28 15L28 16L27 16L27 14L28 14L28 13L27 13L27 12L28 12L28 11L25 11L25 10L26 10L26 8L25 8L25 9L23 9L23 8L22 8L22 6L23 6L23 7L24 7L24 6L23 6L23 5L22 5L22 6L21 6L21 8L22 8L22 11L21 11L21 9L20 9L20 10L19 10L19 8L20 8L20 5L18 5L18 6L17 6L17 8L15 8L15 7L16 7L16 6L15 6L15 7L14 7L14 13L15 13L15 14L14 14L14 15L12 15L12 16L11 16L11 15L10 15L10 14L9 14L9 13L11 13L11 14L13 14L13 13L11 13L11 12L10 12L10 11L11 11L11 10L12 10L12 11L13 11L13 10L12 10L12 9L13 9L13 7L12 7L12 5ZM18 6L18 7L19 7L19 6ZM17 8L17 9L16 9L16 10L15 10L15 11L16 11L16 12L15 12L15 13L16 13L16 15L15 15L15 16L16 16L16 18L15 18L15 19L14 19L14 20L13 20L13 19L12 19L12 21L14 21L14 24L13 24L13 25L12 25L12 26L13 26L13 25L15 25L15 24L16 24L16 25L17 25L17 24L18 24L18 22L19 22L19 21L22 21L22 20L21 20L21 19L22 19L22 18L23 18L23 19L24 19L24 18L23 18L23 17L24 17L24 16L20 16L20 14L19 14L19 16L20 16L20 17L18 17L18 16L16 16L16 15L17 15L17 14L18 14L18 13L19 13L19 10L18 10L18 11L17 11L17 9L18 9L18 8ZM23 10L23 12L22 12L22 15L23 15L23 14L24 14L24 15L26 15L26 14L27 14L27 13L23 13L23 12L24 12L24 10ZM17 12L17 13L18 13L18 12ZM20 12L20 13L21 13L21 12ZM1 13L1 14L2 14L2 13ZM32 13L32 14L33 14L33 13ZM6 14L6 15L7 15L7 16L6 16L6 17L7 17L7 16L9 16L9 14ZM30 14L30 15L29 15L29 16L30 16L30 17L29 17L29 18L31 18L31 19L32 19L32 17L31 17L31 16L33 16L33 15L31 15L31 14ZM4 15L4 16L5 16L5 15ZM30 15L30 16L31 16L31 15ZM25 16L25 18L26 18L26 17L27 17L27 19L28 19L28 17L27 17L27 16ZM17 17L17 18L16 18L16 19L15 19L15 20L18 20L18 21L15 21L15 23L16 23L16 24L17 24L17 22L18 22L18 21L19 21L19 20L18 20L18 19L19 19L19 18L18 18L18 17ZM20 17L20 18L22 18L22 17ZM5 18L5 20L6 20L6 21L7 21L7 20L8 20L8 19L7 19L7 18ZM33 18L33 19L34 19L34 18ZM6 19L6 20L7 20L7 19ZM24 20L24 21L25 21L25 20ZM8 22L8 23L6 23L6 24L8 24L8 23L9 23L9 22ZM12 22L12 23L13 23L13 22ZM20 22L20 23L22 23L22 24L21 24L21 25L22 25L22 24L23 24L23 26L24 26L24 24L23 24L23 23L22 23L22 22ZM4 23L4 24L1 24L1 25L2 25L2 26L3 26L3 25L4 25L4 24L5 24L5 23ZM28 24L28 25L26 25L26 27L29 27L29 24ZM21 26L21 27L22 27L22 26ZM4 28L4 29L5 29L5 28ZM6 28L6 29L7 29L7 28ZM13 28L13 29L12 29L12 30L15 30L15 28ZM33 28L33 29L34 29L34 28ZM17 29L17 31L18 31L18 29ZM29 29L29 32L32 32L32 29ZM30 30L30 31L31 31L31 30ZM35 30L35 31L34 31L34 34L33 34L33 33L32 33L32 34L33 34L33 35L34 35L34 34L35 34L35 35L36 35L36 34L35 34L35 33L36 33L36 30ZM12 31L12 33L11 33L11 34L12 34L12 35L13 35L13 34L12 34L12 33L13 33L13 31ZM15 32L15 35L16 35L16 33L18 33L18 32ZM24 32L24 33L23 33L23 35L24 35L24 33L25 33L25 32ZM21 34L21 35L22 35L22 34ZM29 35L29 36L28 36L28 37L30 37L30 35ZM0 0L0 7L7 7L7 0ZM1 1L1 6L6 6L6 1ZM2 2L2 5L5 5L5 2ZM37 0L30 0L30 7L37 7ZM36 1L31 1L31 6L36 6ZM35 2L32 2L32 5L35 5ZM0 37L7 37L7 30L0 30ZM1 36L6 36L6 31L1 31ZM2 35L5 35L5 32L2 32Z" fill="#000000"/></g></g></svg>
