<?xml version="1.0" encoding="UTF-8"?>
<svg xmlns="http://www.w3.org/2000/svg" version="1.1" width="200" height="200" viewBox="0 0 200 200"><rect x="0" y="0" width="200" height="200" fill="#ffffff"/><g transform="scale(4.444)"><g transform="translate(4,4)"><path fill-rule="evenodd" d="M8 0L8 4L9 4L9 5L8 5L8 7L9 7L9 6L10 6L10 9L8 9L8 10L6 10L6 9L7 9L7 8L4 8L4 9L5 9L5 11L7 11L7 12L4 12L4 11L1 11L1 10L0 10L0 11L1 11L1 12L3 12L3 13L4 13L4 14L5 14L5 13L7 13L7 14L6 14L6 15L5 15L5 17L7 17L7 16L8 16L8 19L7 19L7 18L4 18L4 15L3 15L3 17L2 17L2 16L1 16L1 17L0 17L0 19L1 19L1 18L2 18L2 20L1 20L1 21L2 21L2 22L1 22L1 23L0 23L0 26L1 26L1 24L2 24L2 25L4 25L4 26L2 26L2 27L4 27L4 28L0 28L0 29L5 29L5 28L6 28L6 29L7 29L7 28L9 28L9 29L8 29L8 30L9 30L9 29L10 29L10 31L8 31L8 33L9 33L9 32L10 32L10 31L11 31L11 32L12 32L12 33L13 33L13 34L15 34L15 35L14 35L14 36L13 36L13 35L12 35L12 36L10 36L10 35L11 35L11 33L10 33L10 35L8 35L8 37L9 37L9 36L10 36L10 37L12 37L12 36L13 36L13 37L15 37L15 36L17 36L17 37L18 37L18 35L19 35L19 34L20 34L20 36L19 36L19 37L21 37L21 36L22 36L22 37L23 37L23 36L24 36L24 37L25 37L25 35L26 35L26 36L27 36L27 37L28 37L28 36L27 36L27 35L26 35L26 33L25 33L25 32L24 32L24 33L23 33L23 32L22 32L22 31L26 31L26 32L27 32L27 30L28 30L28 33L27 33L27 34L28 34L28 35L29 35L29 36L31 36L31 35L32 35L32 34L31 34L31 33L33 33L33 34L35 34L35 33L36 33L36 34L37 34L37 33L36 33L36 32L37 32L37 31L36 31L36 32L35 32L35 30L34 30L34 29L36 29L36 28L37 28L37 27L36 27L36 28L35 28L35 27L34 27L34 28L31 28L31 27L30 27L30 26L29 26L29 25L31 25L31 26L36 26L36 25L37 25L37 24L36 24L36 23L33 23L33 22L36 22L36 21L37 21L37 20L36 20L36 19L34 19L34 18L35 18L35 14L36 14L36 13L37 13L37 12L35 12L35 10L36 10L36 9L37 9L37 8L33 8L33 9L32 9L32 8L31 8L31 9L32 9L32 10L33 10L33 11L32 11L32 12L33 12L33 11L34 11L34 14L33 14L33 13L32 13L32 14L31 14L31 15L30 15L30 13L31 13L31 12L29 12L29 10L30 10L30 9L29 9L29 6L28 6L28 9L25 9L25 5L26 5L26 7L27 7L27 5L29 5L29 4L28 4L28 2L29 2L29 0L25 0L25 1L24 1L24 2L26 2L26 3L22 3L22 2L23 2L23 0L22 0L22 1L21 1L21 2L20 2L20 1L19 1L19 0L18 0L18 1L19 1L19 2L17 2L17 3L18 3L18 4L19 4L19 2L20 2L20 4L21 4L21 3L22 3L22 5L21 5L21 6L20 6L20 5L16 5L16 7L15 7L15 6L14 6L14 7L13 7L13 6L12 6L12 7L11 7L11 3L10 3L10 2L9 2L9 0ZM13 0L13 1L11 1L11 2L12 2L12 5L13 5L13 2L14 2L14 3L15 3L15 2L16 2L16 1L17 1L17 0L16 0L16 1L15 1L15 0ZM26 1L26 2L28 2L28 1ZM23 4L23 5L22 5L22 6L21 6L21 7L20 7L20 6L19 6L19 7L18 7L18 6L17 6L17 7L18 7L18 8L19 8L19 7L20 7L20 9L18 9L18 10L19 10L19 11L20 11L20 13L19 13L19 12L17 12L17 11L16 11L16 9L17 9L17 8L15 8L15 7L14 7L14 9L15 9L15 10L13 10L13 9L12 9L12 8L13 8L13 7L12 7L12 8L11 8L11 9L10 9L10 11L9 11L9 10L8 10L8 11L9 11L9 13L11 13L11 14L12 14L12 13L13 13L13 14L16 14L16 15L18 15L18 17L17 17L17 16L15 16L15 15L14 15L14 17L15 17L15 18L13 18L13 17L12 17L12 16L13 16L13 15L12 15L12 16L11 16L11 15L10 15L10 16L9 16L9 17L10 17L10 16L11 16L11 19L10 19L10 21L9 21L9 24L8 24L8 25L11 25L11 27L10 27L10 26L9 26L9 27L10 27L10 29L11 29L11 30L12 30L12 29L13 29L13 30L17 30L17 31L20 31L20 32L16 32L16 31L14 31L14 33L20 33L20 34L21 34L21 33L22 33L22 32L21 32L21 30L22 30L22 28L21 28L21 29L20 29L20 27L22 27L22 26L23 26L23 25L24 25L24 27L23 27L23 29L24 29L24 30L27 30L27 29L28 29L28 27L29 27L29 26L28 26L28 27L27 27L27 29L26 29L26 25L29 25L29 24L31 24L31 22L32 22L32 21L29 21L29 22L28 22L28 24L26 24L26 23L25 23L25 25L24 25L24 24L23 24L23 21L24 21L24 22L26 22L26 21L28 21L28 19L27 19L27 18L28 18L28 17L29 17L29 19L30 19L30 20L31 20L31 19L32 19L32 17L33 17L33 18L34 18L34 17L33 17L33 14L32 14L32 17L31 17L31 19L30 19L30 17L29 17L29 16L30 16L30 15L29 15L29 16L27 16L27 15L25 15L25 16L24 16L24 17L27 17L27 18L26 18L26 19L25 19L25 18L24 18L24 19L25 19L25 20L23 20L23 17L22 17L22 16L21 16L21 15L20 15L20 14L22 14L22 15L23 15L23 14L26 14L26 11L27 11L27 10L25 10L25 9L23 9L23 8L24 8L24 5L25 5L25 4ZM22 6L22 7L21 7L21 9L22 9L22 10L20 10L20 11L21 11L21 12L22 12L22 14L23 14L23 13L25 13L25 12L23 12L23 11L25 11L25 10L23 10L23 9L22 9L22 8L23 8L23 6ZM0 8L0 9L2 9L2 8ZM34 9L34 10L35 10L35 9ZM22 10L22 11L23 11L23 10ZM12 11L12 12L11 12L11 13L12 13L12 12L13 12L13 13L17 13L17 14L18 14L18 15L19 15L19 13L17 13L17 12L15 12L15 11L14 11L14 12L13 12L13 11ZM27 12L27 13L28 13L28 12ZM7 14L7 15L6 15L6 16L7 16L7 15L9 15L9 14ZM20 16L20 17L21 17L21 19L19 19L19 17L18 17L18 18L17 18L17 17L16 17L16 19L17 19L17 20L15 20L15 19L14 19L14 20L13 20L13 19L12 19L12 20L11 20L11 21L10 21L10 22L11 22L11 23L10 23L10 24L12 24L12 25L13 25L13 26L15 26L15 25L14 25L14 23L15 23L15 24L17 24L17 25L16 25L16 27L17 27L17 29L18 29L18 28L19 28L19 26L20 26L20 25L21 25L21 26L22 26L22 25L23 25L23 24L22 24L22 21L23 21L23 20L22 20L22 17L21 17L21 16ZM36 16L36 17L37 17L37 16ZM5 19L5 21L4 21L4 20L3 20L3 21L4 21L4 23L3 23L3 22L2 22L2 24L4 24L4 25L6 25L6 26L4 26L4 27L6 27L6 28L7 28L7 27L8 27L8 26L7 26L7 25L6 25L6 24L7 24L7 23L8 23L8 21L6 21L6 20L7 20L7 19ZM26 19L26 20L27 20L27 19ZM12 20L12 21L11 21L11 22L12 22L12 21L13 21L13 22L16 22L16 23L17 23L17 21L13 21L13 20ZM18 20L18 25L17 25L17 26L19 26L19 25L20 25L20 24L21 24L21 25L22 25L22 24L21 24L21 22L20 22L20 21L19 21L19 20ZM21 20L21 21L22 21L22 20ZM33 20L33 21L34 21L34 20ZM35 20L35 21L36 21L36 20ZM5 22L5 23L4 23L4 24L5 24L5 23L7 23L7 22ZM29 22L29 23L30 23L30 22ZM12 23L12 24L13 24L13 23ZM19 23L19 24L20 24L20 23ZM32 24L32 25L34 25L34 24ZM6 26L6 27L7 27L7 26ZM12 27L12 28L11 28L11 29L12 29L12 28L13 28L13 29L16 29L16 28L15 28L15 27L14 27L14 28L13 28L13 27ZM19 29L19 30L20 30L20 29ZM29 29L29 32L32 32L32 29ZM30 30L30 31L31 31L31 30ZM12 31L12 32L13 32L13 31ZM33 31L33 33L34 33L34 31ZM24 33L24 34L25 34L25 33ZM28 33L28 34L29 34L29 35L30 35L30 33ZM16 34L16 35L17 35L17 34ZM34 35L34 36L32 36L32 37L37 37L37 36L36 36L36 35ZM0 0L0 7L7 7L7 0ZM1 1L1 6L6 6L6 1ZM2 2L2 5L5 5L5 2ZM37 0L30 0L30 7L37 7ZM36 1L31 1L31 6L36 6ZM35 2L32 2L32 5L35 5ZM0 37L7 37L7 30L0 30ZM1 36L6 36L6 31L1 31ZM2 35L5 35L5 32L2 32Z" fill="#000000"/></g></g></svg>
